# xmcd
#
# Track frame offsets: 
#        150
#        13122
#        25862
#        39300
#        52325
#        66507
#        78850
#        94470
#        104442
#        117110
#
# Disc length: 1713 seconds
#
# Revision: 2
# Processed by: cddbd v1.5.2PL0 Copyright (c) Steve Scherf et al.
# Submitted via: ExactAudioCopyFreeDBPlugin 1.0
#
DISCID=8406af0a
DTITLE=Merle Haggard - Greatest Hits
DYEAR=1994
DGENRE=Country
TTITLE0=Swinging Door
TTITLE1=Sing Me Back Home
TTITLE2=Im a Lonesome Fugitive
TTITLE3=I Take a Lot of Pride in What I Am
TTITLE4=Branded Man
TTITLE5=Okie from Muskogee
TTITLE6=Hungry Eyes
TTITLE7=Mam Tried
TTITLE8=The Bottle Let Me Down
TTITLE9=(My Friends Are Gonna Be) Strangers
EXTD=
EXTT0=
EXTT1=
EXTT2=
EXTT3=
EXTT4=
EXTT5=
EXTT6=
EXTT7=
EXTT8=
EXTT9=
PLAYORDER=
